<?xml version="1.0" encoding="utf-8"?>
<!-- Generator: Adobe Illustrator 25.4.1, SVG Export Plug-In . SVG Version: 6.00 Build 0)  -->
<svg version="1.1" id="Layer_1" xmlns="http://www.w3.org/2000/svg" xmlns:xlink="http://www.w3.org/1999/xlink" x="0px" y="0px"
	 viewBox="0 0 20 20" style="enable-background:new 0 0 20 20;" xml:space="preserve">
<path d="M76.9,0.6H63c-1.1,0-2,0.9-2,2v14.9c0,1.1,0.9,2,2,2h13.9c1.1,0,2-0.9,2-2V2.6C79,1.5,78.1,0.6,76.9,0.6z M63,2.1h13.9
	c0.3,0,0.6,0.3,0.6,0.6V4h-15V2.6C62.5,2.3,62.7,2.1,63,2.1z M76.9,18.1H63c-0.3,0-0.6-0.3-0.6-0.6v-12h15v12
	C77.5,17.8,77.2,18.1,76.9,18.1z"/>
<path d="M69,8.6c0.2,0.3,0.2,0.7-0.1,1l-0.1,0.1l-3.2,2.3l3.4,2.4c0.3,0.2,0.4,0.6,0.2,1l-0.1,0.1c-0.2,0.3-0.6,0.4-0.9,0.2
	l-0.1-0.1l-4.3-3l0-1.2l4-2.9C68.3,8.2,68.8,8.3,69,8.6C69,8.6,69,8.6,69,8.6z"/>
<path d="M71.8,8.4L71.8,8.4l4.1,2.9l0,1.2l-4.3,3l-0.1,0.1c-0.3,0.1-0.7,0.1-0.9-0.2l-0.1-0.1l-0.1-0.1c-0.1-0.3-0.1-0.7,0.2-0.9
	l0.1-0.1l3.4-2.4l-3.2-2.3L71,9.6c-0.3-0.3-0.3-0.8,0-1.1C71.2,8.3,71.6,8.2,71.8,8.4z"/>
<g>
	<path d="M17,0.5H3c-1.1,0-2,0.9-2,2v14.9c0,1.1,0.9,2,2,2H17c1.1,0,2-0.9,2-2V2.6C19,1.4,18.1,0.5,17,0.5z M3,2H17
		c0.3,0,0.6,0.3,0.6,0.6V4h-15V2.6C2.5,2.3,2.7,2,3,2z M17,18H3c-0.3,0-0.6-0.3-0.6-0.6v-12h15v12C17.5,17.7,17.3,18,17,18z"/>
	<path d="M9.1,8.6c0.2,0.3,0.2,0.7-0.1,1L8.9,9.6l-3.2,2.3l3.4,2.4c0.3,0.2,0.4,0.6,0.2,1l-0.1,0.1c-0.2,0.3-0.6,0.4-0.9,0.2
		l-0.1-0.1l-4.3-3l0-1.2l4-2.9C8.4,8.1,8.8,8.2,9.1,8.6C9.1,8.6,9.1,8.6,9.1,8.6z"/>
	<path d="M11.9,8.3L11.9,8.3l4.1,2.9l0,1.2l-4.3,3l-0.1,0.1c-0.3,0.1-0.7,0.1-0.9-0.2l-0.1-0.1l-0.1-0.1c-0.1-0.3-0.1-0.7,0.1-0.9
		l0.1-0.1l3.4-2.4l-3.2-2.3L11,9.5c-0.3-0.3-0.3-0.8,0-1.1C11.2,8.2,11.6,8.2,11.9,8.3z"/>
</g>
</svg>
